<svg id="Capa_1" enable-background="new 0 0 512 512" height="512" fill="#21ba45" viewBox="0 0 512 512" width="512"
	xmlns="http://www.w3.org/2000/svg">
	<g>
		<path d="m151 391c24.813 0 45-20.187 45-45s-20.187-45-45-45-45 20.187-45 45 20.187 45 45 45zm0-60c8.271 0 15 6.729 15 15s-6.729 15-15 15-15-6.729-15-15 6.729-15 15-15z"/>
		<circle cx="181" cy="256" r="15"/>
		<path d="m16 75c0 24.813 20.187 45 45 45 19.555 0 36.228-12.542 42.42-30h32.58v31.076c-51.401 7.385-90 51.66-90 103.924v272c0 8.284 6.716 15 15 15h180c8.284 0 15-6.716 15-15v-272c0-52.189-38.54-96.53-90-103.924v-31.076h75c24.813 0 45 20.187 45 45v241c0 41.355 33.645 75 75 75s75-33.645 75-75v-167.509c34.192-6.968 60-37.271 60-73.491 0-39.497-30.973-105-75-105-43.911 0-75 65.462-75 105 0 36.219 25.808 66.522 60 73.491v167.509c0 24.813-20.187 45-45 45s-45-20.187-45-45v-241c0-41.355-33.645-75-75-75h-75v-30h15c8.284 0 15-6.716 15-15s-6.716-15-15-15h-60c-8.284 0-15 6.716-15 15s6.716 15 15 15h15v30h-32.58c-6.192-17.458-22.865-30-42.42-30-24.813 0-45 20.187-45 45zm210 150v197h-150v-197c0-5.136.521-10.152 1.509-15h146.982c.988 4.848 1.509 9.864 1.509 15zm-150 257v-30h150v30zm134.959-302h-119.918c13.697-18.204 35.475-30 59.959-30s46.262 11.796 59.959 30zm165.041-45c0-28.175 23.752-75 45-75 21.419 0 45 47.035 45 75 0 24.813-20.187 45-45 45s-45-20.187-45-45zm-315-75c8.271 0 15 6.729 15 15s-6.729 15-15 15-15-6.729-15-15 6.729-15 15-15z"/>
		<circle cx="421" cy="135" r="15"/>
	</g>
</svg>