<svg height="512pt" viewBox="0 0 512 512" width="512pt" fill="#5db2f6" xmlns="http://www.w3.org/2000/svg"><path d="m447.605469 154.394531c-5.859375-5.859375-15.351563-5.859375-21.210938 0l-60 60c-2.8125 2.8125-4.394531 6.621094-4.394531 10.605469v60c0 3.984375 1.582031 7.792969 4.394531 10.605469 15.644531 15.640625 35.25 24.6875 55.605469 27.761719v52.632812c0 24.8125-20.1875 45-45 45s-46-20.1875-46-45v-271c0-41.351562-33.648438-75-75-75h-60v-15c0-8.285156-6.714844-15-15-15h-30c-8.285156 0-15 6.714844-15 15v15h-48.761719c-6.214843-17.421875-22.707031-30-42.238281-30-24.8125 0-45 20.1875-45 45s20.1875 45 45 45c19.53125 0 36.023438-12.578125 42.238281-30h48.761719v33.625c9.683594-2.214844 19.65625-3.625 30-3.625s20.316406 1.410156 30 3.625v-33.625h60c24.8125 0 45 20.1875 45 45v271c0 41.351562 34.648438 75 76 75s75-33.648438 75-75v-52.632812c20.355469-3.074219 39.964844-12.121094 55.605469-27.761719 2.8125-2.8125 4.394531-6.621094 4.394531-10.605469v-60c0-3.984375-1.582031-7.792969-4.394531-10.605469zm0 0"/><path d="m61 240h210v182h-210zm0 0"/><path d="m61 497c0 8.289062 6.710938 15 15 15h180c8.289062 0 15-6.710938 15-15v-45h-210zm0 0"/><path d="m166 120c-52.753906 0-96.128906 39.25-103.484375 90h206.96875c-7.355469-50.75-50.730469-90-103.484375-90zm0 0"/></svg>