<?xml version="1.0" standalone="no"?>
<!DOCTYPE svg PUBLIC "-//W3C//DTD SVG 20010904//EN"
 "http://www.w3.org/TR/2001/REC-SVG-20010904/DTD/svg10.dtd">
<svg version="1.0" xmlns="http://www.w3.org/2000/svg"
 width="88.000000pt" height="119.000000pt" viewBox="0 0 885.000000 1196.000000"
 preserveAspectRatio="xMidYMid meet" fill="#2185d0">

<g transform="translate(0.000000,1196.000000) scale(0.100000,-0.100000)"
fill="#000000" stroke="none">
<path d="M3985 11282 c-27 -9 -54 -20 -60 -24 -5 -5 -23 -18 -38 -29 -40 -30
-75 -90 -93 -158 -12 -49 -14 -122 -12 -403 3 -324 4 -346 22 -364 46 -46 98
-46 138 1 16 18 17 55 18 384 l0 363 34 34 34 34 1517 0 c1292 0 1519 -2 1531
-14 7 -8 19 -16 26 -18 10 -4 14 -232 18 -1120 l5 -1114 25 -37 c28 -41 44
-45 72 -20 17 16 20 16 35 0 16 -15 15 -18 -6 -41 -21 -22 -22 -27 -9 -45 14
-20 15 -19 34 12 19 31 19 62 19 1202 l0 1170 -22 40 c-22 41 -76 105 -89 105
-4 0 -15 6 -23 14 -9 8 -40 21 -70 30 -49 14 -208 16 -1555 15 -1361 -1 -1506
-2 -1551 -17z"/>
<path d="M4165 10944 l-25 -25 2 -997 c2 -564 7 -997 12 -997 5 0 10 16 11 35
4 43 35 70 81 70 27 0 34 -4 34 -20 0 -16 -7 -20 -30 -20 -31 0 -50 -22 -50
-59 0 -13 -6 -21 -16 -21 -14 0 -14 -3 -4 -15 8 -10 31 -15 71 -15 46 0 59 3
59 15 0 8 9 15 19 15 10 0 21 -7 25 -15 5 -13 126 -15 1004 -15 l999 0 27 27
c14 14 29 36 31 47 3 12 4 459 3 994 l-3 974 -28 24 -28 24 -1084 0 -1084 0
-26 -26z m2075 -464 l0 -320 -252 0 -253 0 -18 48 c-11 26 -23 56 -27 67 -5
11 -25 61 -46 110 -89 221 -91 224 -132 231 -24 5 -45 2 -61 -7 -26 -15 -30
-21 -79 -129 -17 -36 -44 -96 -62 -135 -17 -38 -38 -83 -45 -100 -8 -16 -28
-60 -44 -98 -17 -37 -31 -74 -31 -82 0 -8 -6 -32 -14 -52 -7 -21 -21 -65 -30
-98 -31 -114 -51 -175 -57 -175 -3 0 -13 19 -23 43 -10 23 -36 78 -56 122 -21
44 -52 111 -70 149 -18 38 -37 74 -44 80 -23 22 -75 56 -85 56 -5 0 -11 3 -13
8 -5 10 -66 52 -77 52 -5 0 -11 3 -13 8 -1 4 -19 18 -38 32 -42 30 -118 34
-171 8 -104 -51 -166 -78 -177 -78 -9 0 -12 65 -12 283 0 156 3 287 7 290 3 4
438 7 965 7 l958 0 0 -320z m-730 -212 c7 -18 18 -46 25 -63 7 -16 21 -50 31
-75 35 -92 50 -117 73 -128 17 -8 116 -12 313 -12 l288 0 0 -470 0 -470 -959
0 -958 0 -7 53 c-8 73 -7 910 2 922 4 6 43 26 87 45 44 18 85 37 90 40 6 4 27
13 48 20 38 12 39 11 134 -51 104 -70 87 -46 185 -259 17 -36 45 -96 63 -135
19 -38 54 -114 79 -168 49 -104 71 -124 127 -112 45 10 59 37 104 205 10 36
23 83 30 105 7 22 20 66 29 98 9 31 23 83 32 115 33 115 39 131 131 330 13 29
28 50 32 48 5 -3 14 -20 21 -38z"/>
<path d="M1427 10793 l-227 -3 -30 -42 c-17 -22 -30 -48 -30 -55 0 -8 -6 -29
-14 -46 -13 -32 -33 -82 -62 -159 -9 -24 -22 -56 -29 -73 -7 -16 -16 -39 -20
-50 -56 -154 -54 -147 -39 -177 8 -15 28 -35 45 -43 28 -15 33 -15 60 2 17 10
37 29 44 43 19 35 45 97 45 105 0 4 6 21 14 38 14 33 35 87 62 160 8 23 22 55
30 70 8 16 14 35 14 42 0 7 7 16 16 19 19 7 109 8 116 1 5 -5 2 -27 -27 -187
-8 -48 -15 -97 -15 -110 0 -13 -7 -63 -15 -113 -15 -87 -33 -194 -55 -340 -6
-38 -15 -104 -20 -145 -5 -41 -14 -97 -19 -125 -6 -27 -17 -99 -26 -160 -9
-60 -22 -150 -30 -200 -25 -160 -46 -298 -61 -395 -8 -52 -21 -134 -29 -181
-8 -47 -15 -97 -15 -110 0 -22 -8 -72 -46 -286 -8 -45 -14 -92 -14 -105 0 -13
-7 -63 -15 -113 -30 -174 -45 -270 -48 -300 l-2 -30 -210 -5 c-251 -6 -265
-11 -265 -86 0 -35 5 -50 23 -65 20 -17 41 -18 225 -19 l202 0 0 -290 c0 -268
-1 -291 -17 -297 -53 -17 -104 -48 -139 -81 -54 -52 -114 -122 -114 -133 0 -5
-4 -9 -8 -9 -5 0 -23 -19 -40 -42 -17 -24 -41 -55 -54 -69 -48 -54 -104 -123
-127 -155 -13 -19 -28 -34 -33 -34 -4 0 -8 -4 -8 -9 0 -6 -16 -27 -35 -48 -65
-70 -73 -98 -84 -308 -6 -104 -15 -233 -21 -285 -34 -336 -34 -435 5 -590 7
-30 21 -89 30 -130 19 -87 40 -178 62 -270 16 -63 61 -130 88 -130 6 0 16 -5
22 -11 25 -25 118 -49 187 -49 79 0 138 18 206 63 58 38 72 59 87 127 7 30 19
84 27 120 9 36 22 94 30 130 9 36 23 97 32 135 9 39 20 93 25 120 11 59 4 258
-18 480 -15 155 -16 160 -49 203 -42 56 -43 85 -4 122 27 26 29 32 24 74 -8
52 9 98 32 89 8 -3 14 -9 14 -14 0 -6 10 -23 22 -39 16 -22 25 -27 34 -19 9 7
24 -6 59 -51 40 -52 49 -59 66 -50 32 18 23 -15 -12 -43 l-31 -24 28 -48 c16
-26 40 -66 53 -88 13 -23 37 -61 52 -85 16 -24 29 -45 29 -48 0 -2 12 -23 27
-47 47 -72 52 -81 59 -99 3 -10 10 -18 14 -18 5 0 12 -9 15 -21 4 -11 20 -40
36 -64 16 -24 29 -47 29 -53 0 -6 3 -12 8 -14 7 -3 99 -150 151 -241 13 -23
37 -61 52 -85 16 -24 29 -45 29 -48 0 -2 12 -23 27 -47 35 -54 49 -77 63 -102
14 -25 28 -48 63 -102 15 -24 27 -47 27 -52 0 -5 3 -11 8 -13 15 -6 94 -147
88 -157 -4 -6 -22 -13 -41 -17 -19 -3 -39 -12 -46 -20 -6 -8 -15 -14 -20 -14
-20 0 -182 -178 -209 -231 -67 -129 -13 -298 120 -373 49 -28 64 -31 135 -30
64 0 89 5 124 23 80 42 261 246 261 293 0 23 0 23 60 -12 28 -17 55 -30 60
-30 17 0 16 -25 -2 -44 -37 -41 -58 -139 -58 -276 0 -105 3 -135 20 -172 42
-95 151 -168 254 -168 81 0 143 27 206 90 50 50 58 64 73 127 20 82 24 292 6
325 -14 26 -5 33 75 47 71 14 153 40 181 58 11 7 27 13 37 13 10 0 18 4 18 9
0 5 10 13 22 17 31 10 125 77 192 139 13 12 80 97 149 190 70 94 131 175 137
182 5 7 10 17 10 23 0 5 4 10 9 10 5 0 21 20 35 45 15 25 31 45 36 45 6 0 10
4 10 10 0 12 69 104 81 108 5 2 9 8 9 13 0 8 182 258 240 329 11 14 33 44 48
67 l27 43 113 0 112 0 -2 -962 -3 -962 -25 -13 c-14 -7 -70 -34 -125 -59 -160
-74 -289 -135 -305 -145 -8 -5 -25 -13 -38 -19 -38 -16 -107 -96 -138 -157
l-29 -58 0 -312 c0 -302 1 -313 21 -333 30 -30 87 -37 112 -14 39 38 42 56 42
293 l0 231 108 1 c59 0 391 0 739 -1 465 -1 638 2 655 11 57 29 74 92 38 139
l-19 25 -658 5 c-362 3 -662 3 -668 0 -19 -9 -80 -7 -92 2 -7 5 -17 7 -23 3
-5 -3 -10 -2 -10 3 0 5 30 24 68 42 37 17 99 47 138 66 39 19 76 34 82 34 7 0
12 5 12 10 0 6 6 10 13 10 6 0 39 15 72 33 l60 32 913 3 c1011 3 909 8 1052
-56 19 -8 50 -22 67 -29 18 -7 47 -20 65 -28 18 -7 51 -21 73 -30 22 -9 54
-22 70 -30 17 -7 49 -21 72 -31 22 -11 39 -22 37 -26 -3 -4 -225 -8 -494 -8
-269 0 -500 -4 -513 -9 -36 -14 -48 -36 -45 -82 3 -37 8 -47 37 -66 l34 -23
534 2 533 3 0 -60 c1 -60 15 -95 41 -95 7 0 28 14 46 32 l33 32 -26 33 c-21
28 -23 36 -13 55 12 22 12 21 42 -15 23 -30 32 -35 43 -26 20 16 17 93 -6 166
-27 87 -44 116 -94 165 -42 43 -65 56 -161 98 -27 11 -63 28 -78 35 -16 8 -33
15 -38 15 -5 0 -37 13 -71 28 -35 16 -94 42 -133 59 l-70 29 -3 871 -2 870
-25 27 c-31 34 -74 34 -114 0 l-31 -26 0 -849 0 -849 -817 2 -818 3 -3 952 -2
953 161 0 c180 0 213 9 224 62 7 28 7 28 91 28 l84 0 -2 -197 -3 -196 -38 -20
c-49 -25 -89 -65 -118 -119 -21 -40 -23 -58 -27 -232 -3 -124 -8 -193 -16
-201 -6 -6 -24 -20 -39 -32 -40 -31 -83 -93 -101 -147 -13 -38 -16 -96 -16
-306 l0 -258 26 -31 26 -31 573 0 574 0 21 27 c21 27 21 34 18 318 -4 277 -5
292 -26 330 -36 64 -59 85 -93 85 -35 0 -93 54 -104 97 -7 30 15 69 45 78 18
6 20 15 20 103 0 131 -21 200 -80 261 -25 25 -62 55 -83 65 -24 13 -36 25 -32
34 3 7 5 94 5 193 l0 179 65 0 c53 0 65 -3 65 -16 0 -8 13 -29 30 -45 l29 -30
428 3 c422 3 429 3 486 26 108 44 195 132 235 236 l19 51 359 5 c357 5 359 5
399 29 129 78 172 169 163 351 -5 110 -28 169 -83 224 -81 79 -121 89 -383 95
l-222 6 19 40 c32 67 41 138 41 336 0 209 -7 239 -57 257 -31 10 -66 1 -95
-25 -16 -14 -18 -38 -18 -230 0 -236 -7 -269 -67 -324 -67 -62 -46 -59 -429
-59 l-351 0 -12 69 c-6 39 -11 87 -11 108 0 21 -4 52 -8 68 -10 34 -6 55 11
55 22 0 105 79 128 122 19 36 23 58 23 138 1 81 -3 101 -22 137 -47 84 -113
133 -204 151 -65 13 -162 1 -189 -24 -8 -8 -20 -14 -26 -14 -17 0 -102 -96
-109 -124 -3 -14 -10 -29 -15 -32 -5 -3 -9 -42 -8 -87 0 -67 5 -90 24 -127 14
-25 27 -52 31 -60 8 -22 82 -73 136 -96 44 -18 48 -22 48 -54 0 -19 4 -49 9
-67 5 -18 12 -61 16 -97 l7 -66 -822 0 c-452 0 -820 4 -818 8 2 4 48 65 103
134 72 91 106 127 122 127 12 1 24 5 27 10 3 5 17 12 32 15 14 4 31 11 37 17
72 60 110 108 121 154 23 92 15 184 -23 245 -23 38 -82 95 -116 113 -80 40
-193 40 -274 -1 -88 -44 -161 -162 -161 -260 0 -90 62 -207 128 -241 22 -12
22 -13 -36 -89 -33 -42 -74 -95 -93 -118 -19 -22 -47 -57 -63 -77 l-30 -37
-228 0 c-255 0 -266 2 -326 68 -17 20 -37 52 -42 71 -6 22 -10 278 -10 655 l0
620 20 -22 c11 -12 20 -23 20 -26 0 -7 53 -68 97 -113 54 -53 118 -91 207
-120 67 -22 84 -23 376 -23 305 0 307 0 327 23 29 32 35 56 22 92 -9 25 -21
36 -48 44 -22 6 -154 12 -331 14 -324 3 -325 3 -412 70 -35 27 -175 204 -167
211 29 25 105 26 1413 26 1431 0 1400 -1 1352 40 -12 9 -25 7 -62 -9 -69 -31
-100 -28 -124 12 -22 34 -20 70 6 98 8 8 14 18 14 22 0 3 -30 7 -67 9 l-68 3
-3 173 c-2 133 0 174 10 177 7 3 166 6 353 7 221 2 339 7 337 13 -2 6 -10 9
-19 7 -19 -4 -34 17 -28 39 3 8 -5 25 -18 38 -17 15 -23 29 -19 46 l4 25
-1188 1 c-1190 0 -1737 5 -1785 15 -14 2 -33 18 -42 33 -15 26 -17 78 -17 546
0 310 -4 523 -10 534 -5 10 -21 26 -35 35 -21 14 -31 15 -65 5 -71 -21 -70
-12 -70 -570 0 -427 2 -501 17 -553 9 -34 22 -68 30 -77 7 -8 13 -19 13 -23 0
-11 50 -55 95 -85 l40 -26 368 -3 367 -3 0 -180 0 -179 -372 0 c-399 0 -431
-3 -516 -52 -47 -26 -132 -105 -132 -121 0 -6 -6 -18 -13 -26 -7 -9 -21 -39
-30 -66 -16 -46 -17 -108 -15 -720 l3 -670 27 -52 27 -53 -134 0 -135 0 0 907
c0 804 -2 914 -16 972 -23 90 -29 101 -228 400 -97 145 -176 265 -176 267 0 1
-20 32 -45 68 -25 37 -45 70 -45 75 0 5 -3 11 -7 13 -11 5 -53 66 -53 77 0 5
-3 11 -7 13 -12 5 -53 66 -53 78 0 5 -4 10 -9 10 -5 0 -14 14 -21 30 -7 17
-16 30 -21 30 -5 0 -9 4 -9 10 0 5 -20 39 -44 74 -24 35 -45 68 -47 72 -2 5
-62 97 -134 204 -135 202 -149 225 -161 250 -4 8 -10 17 -14 20 -3 3 -14 18
-24 33 -17 27 -18 28 -36 12 -15 -13 -17 -22 -10 -36 13 -23 13 -42 0 -37 -11
3 -90 173 -90 191 0 5 11 7 25 5 23 -5 36 6 18 14 -12 5 -53 66 -53 78 0 5 -4
10 -9 10 -5 0 -14 14 -21 30 -7 17 -16 30 -21 30 -5 0 -9 5 -9 10 0 6 -9 23
-19 38 -10 15 -65 97 -121 182 -56 85 -109 160 -118 166 -10 7 -28 21 -41 33
-13 12 -36 21 -50 21 -14 0 -42 2 -61 3 -19 2 -137 2 -263 0z m283 -173 c0 -5
7 -10 15 -10 8 0 15 -6 15 -14 0 -8 3 -16 8 -18 11 -5 52 -66 52 -78 0 -5 4
-10 8 -10 5 0 14 -10 21 -22 6 -13 20 -36 31 -53 11 -16 25 -40 31 -52 7 -13
16 -23 21 -23 4 0 8 -5 8 -10 0 -6 80 -130 177 -278 184 -277 197 -297 209
-322 4 -8 10 -17 13 -20 13 -11 51 -70 51 -79 0 -5 3 -11 8 -13 10 -5 52 -66
52 -77 0 -5 3 -11 8 -13 11 -5 52 -66 52 -78 0 -5 4 -10 9 -10 5 0 14 -13 21
-30 7 -16 16 -30 21 -30 5 0 9 -5 9 -10 0 -6 9 -23 19 -38 23 -33 331 -499
348 -527 7 -11 15 -27 19 -35 4 -8 10 -17 13 -20 14 -12 51 -70 51 -80 0 -5 4
-10 8 -10 5 0 14 -10 21 -22 6 -13 20 -36 31 -53 11 -16 25 -40 31 -52 7 -13
16 -23 21 -23 4 0 8 -5 8 -10 0 -12 41 -73 53 -78 4 -2 7 -10 7 -18 0 -8 4
-14 10 -14 17 0 50 -92 50 -141 0 -27 -3 -49 -7 -49 -5 0 -65 -1 -134 -2
l-126 0 -72 43 c-40 24 -80 49 -89 54 -40 24 -77 50 -84 59 -3 5 -26 9 -51 10
-35 1 -51 -4 -66 -21 -30 -31 -34 -64 -14 -95 16 -22 91 -80 134 -102 27 -13
110 -66 119 -76 3 -3 19 -13 37 -22 26 -15 57 -18 192 -18 l161 0 0 -799 0
-799 -37 -13 c-83 -27 -147 -86 -186 -172 -24 -54 -23 -264 2 -326 21 -53 88
-124 145 -154 39 -21 53 -22 351 -25 175 -2 314 -7 319 -13 6 -6 6 -9 0 -9 -6
0 -30 -27 -54 -60 -24 -33 -47 -60 -52 -60 -4 0 -8 -7 -8 -15 0 -8 -4 -15 -8
-15 -5 0 -28 -27 -52 -60 -24 -33 -47 -60 -52 -60 -4 0 -8 -7 -8 -15 0 -8 -4
-15 -8 -15 -5 0 -22 -19 -39 -42 -17 -24 -40 -52 -50 -63 -10 -11 -41 -49 -67
-85 -27 -36 -62 -77 -78 -92 -15 -15 -28 -32 -28 -37 0 -6 -3 -11 -8 -11 -4 0
-19 -10 -32 -22 -99 -88 -259 -148 -395 -148 -51 0 -183 24 -213 39 -9 4 -35
16 -57 27 -77 36 -127 82 -189 177 -33 52 -67 102 -74 113 -7 10 -15 27 -18
37 -4 9 -10 17 -14 17 -4 0 -13 14 -20 30 -7 17 -16 30 -21 30 -5 0 -9 5 -9
11 0 5 -26 49 -57 97 -73 110 -81 123 -89 145 -3 9 -10 17 -14 17 -4 0 -13 14
-20 30 -7 17 -16 30 -21 30 -5 0 -9 5 -9 11 0 5 -26 49 -57 97 -73 110 -81
123 -89 145 -3 9 -10 17 -14 17 -4 0 -13 14 -20 30 -7 17 -16 30 -21 30 -5 0
-9 5 -9 11 0 5 -24 47 -53 92 -101 156 -109 169 -128 205 -7 12 -16 22 -21 22
-4 0 -8 5 -8 11 0 5 -26 49 -57 97 -73 110 -81 123 -89 145 -3 9 -10 17 -14
17 -4 0 -13 14 -20 30 -7 17 -16 30 -21 30 -5 0 -9 5 -9 11 0 28 -95 152 -145
189 -30 22 -58 40 -62 40 -4 0 -27 8 -50 18 l-43 17 0 345 c0 267 4 359 15
405 8 33 14 74 15 90 0 17 6 68 14 115 9 47 22 130 30 185 16 104 35 229 61
398 8 53 22 143 30 200 9 56 22 143 30 192 29 180 36 231 45 305 5 41 14 97
19 125 6 27 17 100 26 160 17 114 36 239 56 360 6 39 13 86 15 105 3 19 11 76
19 125 8 50 21 137 30 195 44 283 46 294 74 317 26 23 91 32 91 13z m4498
-2237 c2 -172 2 -173 -20 -178 -13 -3 -311 -4 -663 -3 l-640 3 -3 165 c-1 90
0 170 2 177 4 11 132 13 663 11 l658 -3 3 -172z m-1371 -1269 c85 -33 108
-122 49 -190 -32 -37 -37 -39 -91 -38 -50 0 -60 4 -86 31 -25 27 -29 40 -29
85 1 58 15 81 65 110 39 21 41 21 92 2z m1503 -4 c80 -41 93 -137 28 -202 -30
-30 -111 -32 -150 -3 -51 37 -62 136 -20 175 23 22 73 49 90 50 7 0 31 -9 52
-20z m-5214 -302 c48 -13 116 -69 134 -111 6 -12 32 -56 59 -97 49 -73 120
-185 144 -225 7 -11 15 -22 18 -25 3 -3 12 -16 19 -30 7 -14 37 -62 67 -107
29 -45 53 -87 53 -92 0 -6 4 -11 8 -11 5 0 14 -10 21 -22 6 -13 19 -35 29 -50
9 -15 36 -57 60 -95 24 -37 65 -102 93 -143 27 -41 53 -84 59 -95 6 -11 32
-54 59 -95 28 -41 69 -106 93 -143 24 -38 51 -80 60 -95 10 -15 23 -37 29 -49
7 -13 16 -23 21 -23 4 0 8 -5 8 -11 0 -9 41 -75 121 -197 16 -24 29 -45 29
-48 0 -3 10 -19 23 -37 67 -96 197 -178 360 -227 86 -27 318 -30 386 -5 24 8
50 15 57 15 7 0 44 15 81 33 105 51 185 107 237 166 12 12 31 34 42 46 12 13
37 44 55 69 18 25 36 46 41 46 4 0 8 7 8 15 0 8 4 15 8 15 5 0 28 27 52 60 24
33 47 60 52 60 4 0 8 7 8 15 0 8 4 15 8 15 5 0 28 27 52 60 24 33 47 60 52 60
4 0 8 7 8 15 0 8 4 15 8 15 5 0 23 19 40 43 57 78 78 97 90 85 7 -7 12 -16 12
-20 0 -15 95 -100 127 -113 25 -11 31 -18 26 -32 -4 -10 -9 -20 -13 -23 -3 -3
-17 -21 -30 -40 -12 -19 -28 -40 -34 -45 -6 -6 -15 -18 -21 -27 -10 -18 -284
-388 -311 -421 -8 -9 -14 -22 -14 -27 0 -6 -4 -10 -9 -10 -5 0 -21 -20 -35
-45 -15 -25 -31 -45 -36 -45 -6 0 -10 -7 -10 -15 0 -8 -3 -15 -7 -15 -5 0 -21
-20 -36 -45 -16 -25 -33 -45 -38 -45 -5 0 -9 -5 -9 -11 0 -12 -85 -125 -116
-154 -39 -36 -68 -60 -99 -80 -52 -34 -156 -85 -174 -85 -9 0 -22 -5 -27 -10
-32 -32 -329 -34 -403 -4 -18 8 -40 14 -47 14 -18 0 -141 58 -178 84 -112 79
-179 154 -267 301 -30 50 -57 92 -61 93 -5 2 -8 8 -8 13 0 5 -12 28 -27 52
-38 59 -51 80 -59 97 -4 8 -19 33 -33 55 -38 60 -49 78 -57 95 -4 8 -10 17
-14 20 -10 8 -80 131 -80 140 0 5 -3 10 -8 12 -6 2 -44 62 -135 213 -11 18
-43 70 -74 120 -7 11 -15 27 -19 35 -4 8 -19 33 -33 55 -38 60 -49 78 -57 95
-4 8 -10 17 -14 20 -10 8 -80 131 -80 140 0 5 -3 10 -7 12 -9 3 -83 123 -83
132 0 17 -38 45 -65 48 -23 2 -32 10 -40 33 -5 17 -19 37 -29 46 -17 14 -18
21 -10 50 11 38 6 52 -68 166 -49 76 -83 94 -134 70 -19 -9 -34 -20 -34 -24 0
-5 -12 -21 -26 -38 -14 -16 -40 -49 -57 -72 l-30 -43 -159 0 c-87 0 -158 3
-158 6 0 9 101 128 111 132 5 2 9 10 9 17 0 7 3 15 8 17 4 2 25 26 47 53 21
28 44 55 50 60 5 6 34 40 64 77 62 77 89 98 146 115 54 15 67 15 121 1z m3144
-758 c0 -13 -7 -20 -19 -20 -38 0 -51 -11 -51 -46 0 -30 -3 -34 -25 -34 -37 0
-35 52 4 91 36 36 91 41 91 9z m3344 12 c13 -22 -7 -51 -38 -54 -27 -3 -31 -7
-34 -35 -3 -27 -7 -33 -28 -33 -21 0 -24 5 -24 36 0 44 15 72 43 84 28 11 74
12 81 2z m-6667 -97 c40 -53 52 -64 71 -60 32 8 28 -17 -9 -44 -34 -25 -71
-22 -49 4 13 16 7 29 -44 90 -22 26 -25 28 -31 12 -6 -13 -11 -15 -20 -7 -11
9 -10 17 3 41 9 16 20 29 24 29 4 0 29 -29 55 -65z m-113 -39 c7 -53 8 -54 62
-81 62 -32 61 -53 -2 -36 -21 6 -39 9 -41 8 -1 -2 1 -18 6 -35 9 -30 7 -34
-37 -72 -26 -22 -54 -40 -62 -40 -22 1 -143 157 -136 175 10 26 23 17 77 -55
30 -38 56 -70 59 -70 3 1 18 11 33 24 25 20 27 27 21 62 -5 36 -11 43 -55 63
-27 13 -49 30 -49 37 0 19 24 18 62 -2 l31 -16 -5 40 c-6 38 6 67 22 57 4 -3
11 -29 14 -59z m3516 -10 c0 -57 -23 -84 -75 -88 -37 -3 -40 -1 -43 24 -3 24
1 27 30 30 30 3 33 6 36 41 3 32 7 37 28 37 22 0 24 -4 24 -44z m3340 -6 c0
-51 -34 -90 -80 -90 -42 0 -43 35 0 44 27 5 30 9 30 46 0 36 2 40 25 40 23 0
25 -4 25 -40z m-7033 -184 c45 -34 83 -67 83 -73 0 -18 -30 -16 -52 4 -17 15
-19 15 -37 -1 -16 -14 -17 -22 -8 -46 12 -31 6 -47 -13 -35 -6 4 -31 50 -56
102 -35 75 -43 98 -33 109 13 16 12 17 116 -60z m4983 -406 l0 -190 -90 0 -89
0 -3 190 -3 190 93 0 92 0 0 -190z m147 -386 l33 -25 0 -165 0 -164 -280 0
-280 0 0 153 c1 232 -6 226 284 227 209 0 209 0 243 -26z m113 -424 c37 -50
48 -58 67 -54 13 4 23 3 23 0 0 -11 -64 -65 -77 -66 -18 0 -16 17 2 28 13 7 9
17 -26 60 -33 43 -44 50 -55 41 -8 -7 -17 -10 -19 -7 -7 7 19 58 30 58 6 0 30
-27 55 -60z m-121 -70 c1 -21 10 -28 57 -45 75 -27 61 -56 -15 -31 -23 8 -23
7 -18 -35 5 -42 3 -46 -39 -83 -24 -21 -49 -39 -56 -40 -17 -1 -138 129 -138
149 0 29 26 14 78 -45 56 -63 57 -63 105 -26 16 12 18 22 12 56 -6 36 -12 43
-51 61 -46 22 -61 47 -21 34 69 -21 70 -21 63 19 -8 43 5 74 15 36 4 -14 7
-36 8 -50z m-3589 -32 c35 -26 54 -76 45 -119 -10 -43 -148 -186 -192 -198
-35 -10 -87 1 -109 24 -19 19 -34 79 -26 107 6 23 53 84 117 152 56 59 115 71
165 34z m3413 -164 c75 -48 96 -74 59 -74 -10 0 -23 5 -30 12 -10 10 -17 8
-33 -9 -17 -17 -19 -24 -10 -42 12 -22 7 -41 -9 -41 -15 0 -102 180 -96 197 9
21 30 13 119 -43z m-2809 -161 c58 -27 69 -64 60 -199 -6 -109 -8 -117 -35
-143 -47 -48 -118 -49 -161 -4 -22 24 -23 31 -21 154 3 143 10 163 68 193 39
19 48 19 89 -1z"/>
<path d="M1260 6256 c0 -9 5 -16 10 -16 6 0 10 4 10 9 0 6 -4 13 -10 16 -5 3
-10 -1 -10 -9z"/>
<path d="M1300 6191 c0 -6 5 -13 10 -16 6 -3 10 1 10 9 0 9 -4 16 -10 16 -5 0
-10 -4 -10 -9z"/>
<path d="M590 5723 c0 -17 27 -46 33 -36 4 6 -2 18 -13 28 -11 10 -20 14 -20
8z"/>
<path d="M5530 4246 c0 -16 25 -56 34 -53 20 7 16 25 -9 41 -14 9 -25 14 -25
12z"/>
<path d="M6716 10669 c-35 -28 -37 -95 -3 -127 54 -51 147 -10 147 64 0 19 -4
34 -10 34 -5 0 -10 5 -10 11 0 39 -82 51 -124 18z"/>
<path d="M6753 10331 c-43 -11 -63 -38 -63 -84 0 -56 30 -87 83 -87 76 0 115
90 62 143 -29 28 -51 36 -82 28z"/>
<path d="M2210 10135 c0 -3 7 -20 16 -36 12 -25 18 -28 30 -18 11 9 12 15 2
26 -13 16 -48 36 -48 28z"/>
<path d="M6745 9973 c-58 -15 -76 -109 -28 -150 39 -34 85 -31 117 8 41 48 33
93 -24 132 -25 17 -31 18 -65 10z"/>
<path d="M6717 9597 c-21 -18 -27 -32 -27 -63 0 -51 26 -83 74 -91 31 -5 40
-1 66 27 39 41 39 78 1 119 -35 38 -77 41 -114 8z"/>
<path d="M6675 9329 c-174 -72 -220 -291 -90 -425 44 -45 129 -84 185 -84 32
0 130 32 130 42 0 4 6 8 13 8 16 0 77 62 77 78 0 7 4 12 9 12 4 0 15 28 24 63
13 54 13 71 2 120 -36 157 -204 247 -350 186z m164 -188 c29 -40 27 -82 -5
-115 -65 -65 -169 -7 -147 83 10 43 33 60 85 60 40 1 49 -3 67 -28z"/>
<path d="M7098 8766 c-8 -8 -32 -22 -53 -30 l-38 -16 33 -31 32 -31 41 41 42
41 -21 21 c-19 18 -23 19 -36 5z"/>
<path d="M7138 8657 c-33 -28 -35 -34 -24 -50 17 -23 55 -15 86 18 18 19 20
27 11 44 -16 28 -29 26 -73 -12z"/>
<path d="M6590 8184 c-65 -28 -88 -67 -56 -93 11 -10 25 -8 64 9 73 31 102 25
127 -27 l19 -43 197 0 c174 0 199 -2 219 -18 l22 -18 -36 -53 c-20 -29 -36
-57 -36 -61 0 -17 -90 -97 -141 -125 l-54 -30 -785 -5 c-432 -3 -793 -9 -802
-13 -9 -5 -24 -24 -33 -43 -14 -30 -14 -36 0 -63 8 -17 24 -35 34 -41 13 -7
282 -10 794 -10 849 0 803 -3 932 61 33 17 78 47 101 67 41 37 104 114 104
127 0 3 7 13 15 21 13 14 15 -11 15 -218 0 -255 2 -266 58 -286 40 -14 87 10
101 50 15 41 14 452 0 519 -32 150 -134 256 -285 298 -64 17 -184 14 -205 -5
-16 -15 -20 -15 -41 0 -22 16 -158 24 -158 10 0 -3 19 -29 42 -56 43 -52 43
-51 2 -72 -1 -1 -18 19 -39 44 -20 25 -45 55 -56 68 -22 26 -67 29 -119 6z"/>
<path d="M1160 6134 c0 -11 38 -74 45 -74 11 0 4 18 -20 50 -14 19 -25 30 -25
24z"/>
<path d="M1017 6083 c-11 -10 -8 -43 3 -43 12 0 31 35 23 44 -8 8 -18 8 -26
-1z"/>
<path d="M5967 4643 c-10 -9 -9 -51 2 -57 8 -5 31 35 31 54 0 11 -23 13 -33 3z"/>
<path d="M7131 2751 c-19 -15 -32 -33 -30 -39 2 -6 24 -32 49 -58 l45 -48 3
73 c3 66 -7 102 -27 101 -3 0 -21 -13 -40 -29z"/>
<path d="M7038 2666 c-29 -22 -21 -42 51 -124 59 -66 68 -81 59 -97 -19 -35
-62 -76 -95 -90 l-33 -14 0 -550 0 -551 -1475 0 -1475 0 0 366 c0 377 -1 388
-42 427 -40 39 -112 15 -128 -42 -6 -21 -10 -192 -10 -417 0 -355 -1 -382 -17
-388 -41 -13 -107 -74 -134 -122 -9 -16 -22 -55 -29 -86 -21 -95 8 -191 83
-270 14 -16 29 -28 33 -28 4 0 15 -6 23 -13 9 -8 45 -22 80 -32 60 -18 67 -18
127 -2 110 29 181 89 217 187 21 57 22 146 2 193 -8 20 -15 41 -15 47 0 7 409
10 1286 10 1026 0 1284 -3 1277 -12 -4 -7 -12 -42 -18 -78 -28 -168 51 -295
217 -346 49 -15 65 -16 111 -5 155 34 247 143 247 291 0 108 -38 174 -147 261
-7 5 -17 9 -23 9 -7 0 -10 213 -10 673 l0 673 -72 71 c-65 63 -75 70 -90 59z
m-2960 -1651 c55 -46 52 -150 -5 -195 -18 -14 -40 -20 -77 -20 -53 1 -77 13
-109 60 -33 48 -18 115 38 162 33 28 116 24 153 -7z m3086 4 c93 -73 46 -219
-71 -219 -57 0 -93 21 -117 70 -19 39 -16 110 4 110 6 0 10 6 10 13 0 22 53
46 101 47 32 0 54 -6 73 -21z"/>
<path d="M7020 2465 c0 -58 2 -65 20 -65 22 0 60 33 60 53 0 13 -60 77 -73 77
-4 0 -7 -29 -7 -65z"/>
</g>
</svg>
